<svg width="120" height="90" xmlns="http://www.w3.org/2000/svg">
 <!-- Generator: Sketch 48.1 (47250) - http://www.bohemiancoding.com/sketch -->
 <title>handy logo</title>
 <desc>Created with Sketch.</desc>

 <g>
  <title>background</title>
  <rect fill="none" id="canvas_background" height="92" width="122" y="-1" x="-1"/>
 </g>
 <g>
  <title>Layer 1</title>
  <g fill-rule="evenodd" fill="none" id="Assets">
   <g fill="#00CDED" id="Handy-Logo-SVG">
    <path id="Imported-Layers" d="m83.662414,27.73377l-8.646857,1.813909l0,24.604889l8.61315,-1.806761c7.199679,-1.510125 12.011164,-7.204227 12.011164,-14.804611c0,-7.599834 -4.811485,-11.310403 -11.977457,-9.807426l0,0zm6.426365,10.971979c0,4.927631 -2.994643,7.742516 -6.661479,8.511462l-3.095486,0.649356l-0.000278,-14.263022l3.095485,-0.649357c3.667115,-0.76922 6.6612,0.823655 6.661758,5.751561l0,0zm-35.245136,-4.925982l-5.277536,1.10682l0.000557,24.60434l5.276979,-1.10682l0,-15.619194l10.306307,13.456963l5.277814,-1.10682l0,-24.604339l-5.277814,1.10682l0,15.619193l-10.306307,-13.456963l0,0zm-30.483514,18.679031c-0.000279,7.600109 4.810928,11.310678 11.977178,9.807701l8.646857,-1.814184l0,-24.604614l-8.61315,1.806211c-7.199957,1.5104 -12.011164,7.204777 -12.010885,14.804886l0,0zm12.21285,-9.676015l3.095485,-0.649631l0,14.263572l-3.095485,0.648807c-3.667115,0.76977 -6.661758,-0.82338 -6.662036,-5.751011c0,-4.92818 2.994921,-7.742791 6.662036,-8.511737l0,0zm76.61355,-6.256859c-0.000558,3.263277 -1.765586,5.264955 -4.524836,5.843932c-2.759807,0.578428 -4.524836,-0.682346 -4.524836,-3.945898l0,-14.985232l-5.313471,1.114517l0,15.228535c0,6.428133 4.376914,8.904595 9.838307,7.759012c1.63605,-0.343373 3.171257,-0.976509 4.524278,-1.860096l0,5.50056l0,0.000275c0,3.292968 -2.1645,6.417137 -5.781192,7.175636l-105.904779,22.215576l0.000279,5.480216l107.414914,-22.532282c5.995693,-1.25775 9.58425,-6.436931 9.58425,-11.895978l0,-31.198523l-5.313472,1.114242l0.000558,14.985508l0,0zm-106.373058,16.947871c0.000279,-3.263002 1.765586,-5.26468 4.524558,-5.843932c2.759807,-0.578428 4.525114,0.682621 4.524835,3.946173l0,14.984958l5.313472,-1.114518l0,-15.228535c0,-6.427858 -4.376636,-8.904595 -9.838307,-7.759011c-1.63605,0.343647 -3.171258,0.976783 -4.524279,1.86037l0,-5.500835c0.000279,-3.293243 2.165057,-6.417137 5.781471,-7.17591l105.904779,-22.215577l-0.000557,-5.479941l-107.414636,22.532282c-5.995136,1.257475 -9.58425,6.436656 -9.584528,11.895703l0,31.198798l5.313471,-1.114517l-0.000279,-14.985508l0,0z"/>
   </g>
  </g>
 </g>
</svg>