<?xml version="1.0" encoding="UTF-8"?>
<svg width="88px" height="87px" viewBox="0 0 88 87" version="1.1" xmlns="http://www.w3.org/2000/svg" xmlns:xlink="http://www.w3.org/1999/xlink">
    <!-- Generator: sketchtool 49.1 (51147) - http://www.bohemiancoding.com/sketch -->
    <title>B4099837-8C16-4EBA-9487-3D7A3AD20202</title>
    <desc>Created with sketchtool.</desc>
    <defs></defs>
    <g id="V1-Final" stroke="none" stroke-width="1" fill="none" fill-rule="evenodd">
        <g id="V1_Home" transform="translate(-136.000000, -2424.000000)" fill="#FEFEFE">
            <g id="Happiness-Guarantee" transform="translate(0.000000, 2312.000000)">
                <g id="happiness_logo" transform="translate(136.000000, 112.000000)">
                    <g id="happiness_gaurantee">
                        <polygon id="Fill-4" points="16.5363927 34.7330291 12.8705493 33.8006959 11.932576 37.4669498 15.5978279 38.3989884 15.0735446 40.4467023 5.85763149 38.1033417 6.38191481 36.055333 9.99541858 36.974402 10.9339833 33.3078532 7.32047954 32.389079 7.84742419 30.3292798 17.0633373 32.6726404"></polygon>
                        <path d="M15.9233686,26.9049078 L17.1747882,24.9715616 L13.7942992,24.1515327 L15.9233686,26.9049078 Z M19.162511,25.4529085 L17.1700569,28.5331749 L18.4241379,30.1505359 L17.2167782,32.016971 L11.1616459,23.8762247 L12.4914271,21.8190783 L22.4081589,23.9891187 L21.1570349,25.9224649 L19.162511,25.4529085 Z" id="Fill-6"></path>
                        <path d="M21.977732,17.6750441 C22.5851082,17.1488933 22.6936316,16.4355684 22.2089726,15.880531 C21.7080499,15.3054496 20.9930375,15.3207773 20.3856613,15.8475176 L19.4536021,16.6539873 L21.0456728,18.4815138 L21.977732,17.6750441 Z M22.2314461,19.8636545 L24.4746572,22.4375192 L22.8743068,23.8234917 L16.6384993,16.6651883 L19.3421216,14.323891 C20.8014212,13.0614239 22.6395177,13.1522107 23.8007476,14.4854208 C24.9791284,15.8380852 24.7937219,17.6452731 23.3356051,18.908035 L22.2314461,19.8636545 Z" id="Fill-8"></path>
                        <path d="M29.3376585,12.8938221 C30.0600636,12.5401073 30.3457137,11.8783658 30.020735,11.2183929 C29.6830409,10.5348391 28.988432,10.3688879 28.2669141,10.7223079 L27.159798,11.2649654 L28.2305425,13.4367743 L29.3376585,12.8938221 Z M29.0233251,15.0741791 L30.5328944,18.1326331 L28.6300387,19.0646717 L24.4354764,10.5595991 L27.6483012,8.98497868 C29.3817185,8.13547362 31.1355393,8.69110063 31.9161981,10.2751534 C32.7095721,11.8821977 32.0675985,13.5815026 30.3353641,14.4304182 L29.0233251,15.0741791 Z" id="Fill-10"></path>
                        <polygon id="Fill-12" points="35.6044262 16.0186566 33.1252433 6.86658069 35.1963546 6.30889035 37.6755376 15.4606715"></polygon>
                        <polygon id="Fill-14" points="45.6550824 14.7013637 41.6252273 8.53581983 41.736412 14.7703381 39.6289291 14.8077729 39.4603778 5.32232079 42.0368474 5.27604311 45.709492 10.9793996 45.6074741 5.2126692 47.727968 5.17523439 47.8965193 14.6606865"></polygon>
                        <polygon id="Fill-16" points="49.525967 15.0652183 52.1642387 5.95234582 57.9538288 7.61863733 57.3987922 9.53341349 53.6466033 8.4539938 53.144202 10.1889649 56.5480516 11.1684602 56.0305695 12.9550147 52.627607 11.9758142 52.1213616 13.7231654 55.8862659 14.806417 55.3276809 16.7341627"></polygon>
                        <path d="M64.1260008,14.109422 C64.2981005,13.6970494 64.3797148,12.8705358 63.3932461,12.2724631 C62.7175623,11.8624486 62.0238405,12.0216203 61.751497,12.4670062 C61.5149338,12.855503 61.5823543,13.2876246 62.0812071,13.7300628 L63.0440195,14.5963693 C64.4169736,15.8193383 64.6127297,17.2996348 63.908954,18.4539241 C63.1356878,19.7219917 61.2828061,20.3669317 59.3444659,19.1928933 C57.0991849,17.8307965 57.0217104,15.7966416 57.603656,14.5842841 L59.5091731,15.192084 C59.1244621,15.9767414 59.2320983,16.9332452 60.3430585,17.6070719 C61.0545225,18.0380144 61.6991574,17.9596076 62.0052111,17.4567431 C62.257151,17.0449601 62.1054548,16.5468118 61.6299627,16.1176378 L60.6434939,15.2377722 C59.4278544,14.1412563 59.1490055,12.7202071 59.8808731,11.5205243 C60.8138194,9.98952874 62.8213544,9.7354436 64.380602,10.6798621 C66.4097233,11.9096106 66.4387023,13.585924 66.0324049,14.6394046 L64.1260008,14.109422 Z" id="Fill-18"></path>
                        <path d="M71.3642746,20.5008717 C71.6413493,20.149515 71.9397147,19.3739953 71.1481149,18.5351016 C70.6060894,17.9609046 69.8958082,17.929365 69.5149413,18.2860275 C69.18257,18.5987703 69.1311175,19.0320709 69.4924678,19.5918246 L70.189738,20.6827401 C71.1865565,22.2267052 70.9795636,23.7058226 69.9930948,24.6319659 C68.9084523,25.6486012 66.9488214,25.7780019 65.3951922,24.1314594 C63.5934673,22.2211047 64.0624539,20.2397123 64.9477919,19.2260246 L66.6229555,20.3175295 C66.0427841,20.9719019 65.8902008,21.9231 66.7820443,22.8686976 C67.3521618,23.4720761 67.9941353,23.5672843 68.4237933,23.1643442 C68.7756812,22.8345051 68.7632616,22.3136601 68.4199492,21.7733607 L67.7040496,20.6632857 C66.8252171,19.2835032 66.9375846,17.8382835 67.9630864,16.8770635 C69.272464,15.6487888 71.2761548,15.9373611 72.5258002,17.2626126 C74.1533554,18.9866775 73.7340471,20.610818 73.0601375,21.5178018 L71.3642746,20.5008717 Z" id="Fill-20"></path>
                        <path d="M72.0755612,52.4967637 L73.049019,52.5672119 C72.545435,52.0360501 72.1814232,51.0418167 72.4650035,49.7198076 C73.017083,47.1424057 75.3735487,45.4271837 78.3152128,46.0526694 C81.241796,46.675797 82.6981386,49.297708 82.1383708,51.9151976 C81.5694362,54.5710062 79.7301568,55.4661995 78.3441918,55.5956001 L78.0736226,53.4582784 C78.6821816,53.4370555 79.8641108,53.0459059 80.1952993,51.5019408 C80.4640943,50.2450741 79.9409938,48.5879203 77.8669255,48.146661 C75.923854,47.7334042 74.6381327,48.8004439 74.316111,50.3052057 C73.9884708,51.8362012 74.848674,52.6895382 75.3475268,52.9188633 L75.9454404,50.1318854 L77.7048796,50.5062336 L76.6923889,55.2300948 L71.7171679,54.171898 L72.0755612,52.4967637 Z" id="Fill-22"></path>
                        <path d="M74.169146,56.8595705 L79.4093179,59.9306993 L78.3338422,61.7523306 L73.2453665,58.7693357 C72.250618,58.1862958 71.4270822,58.4483395 70.9169926,59.3131722 C70.4069031,60.1771207 70.5781158,61.0222043 71.5719772,61.6052442 L76.66134,64.5882391 L75.5861599,66.4104599 L70.3477623,63.338152 C68.2887748,62.131395 68.0510288,60.0533205 69.1126064,58.2546807 C70.1738883,56.4560409 72.1110457,55.6528135 74.169146,56.8595705" id="Fill-24"></path>
                        <path d="M67.4634352,66.9919965 L65.7693466,68.5551212 L68.8402334,70.1881045 L67.4634352,66.9919965 Z M63.9640732,67.596554 L66.66326,65.106107 L65.8527351,63.22965 L67.4876829,61.7204668 L71.3220776,71.106584 L69.5185785,72.7696331 L60.4564315,68.2090702 L62.1493373,66.6459455 L63.9640732,67.596554 Z" id="Fill-26"></path>
                        <path d="M59.3061131,74.5645294 C58.5245672,74.9494891 58.3158001,75.5879443 58.612687,76.1871961 C58.9279076,76.8229985 59.5438591,77.0119411 60.3262921,76.6275711 L61.445532,76.0772498 L60.425353,74.0150924 L59.3061131,74.5645294 Z M58.9447627,72.7148958 L59.6186723,72.3838776 L58.0520321,69.2178353 L59.953705,68.283144 L64.1597997,76.7867427 L60.7784237,78.4477285 C59.0937976,79.2757159 57.4408118,78.656715 56.694159,77.144879 C56.1240415,75.993832 56.3289645,74.8053503 57.191829,73.9189999 L53.7572261,71.3283337 L55.850811,70.2996131 L58.9447627,72.7148958 Z" id="Fill-28"></path>
                        <path d="M50.7136033,75.8999797 L48.437569,76.271675 L50.0941032,79.3201071 L50.7136033,75.8999797 Z M47.4641112,74.47952 L51.090626,73.8882267 L51.4528635,71.8782423 L53.6514232,71.518927 L51.6533508,81.4500598 L49.2312388,81.8450413 L44.199834,73.0617131 L46.4776424,72.6903126 L47.4641112,74.47952 Z" id="Fill-30"></path>
                        <polygon id="Fill-32" points="37.8515406 72.033022 40.750032 78.7939858 41.7205327 72.6390534 43.8002195 72.964471 42.3252476 82.3287758 39.7804183 81.9302571 37.1533833 75.6860117 36.2559215 81.3781673 34.1623366 81.0500968 35.6390828 71.6863815"></polygon>
                        <polygon id="Fill-34" points="27.3956516 76.0492473 30.6590418 69.3327927 32.5666287 70.2533354 29.30383 76.9703797 31.9367791 78.2408053 31.0541024 80.0586047 23.8690848 76.590431 24.7517615 74.7729264"></polygon>
                        <polygon id="Fill-36" points="27.6053058 67.6287126 21.4508169 74.85658 16.8594198 70.9719071 18.1528294 69.4529967 21.1279081 71.9699724 22.3006704 70.5940218 19.5997094 68.3102032 20.8070692 66.8929858 23.5071431 69.1768044 24.687298 67.7905371 21.7006869 65.2641291 23.003559 63.7351969"></polygon>
                        <polygon id="Fill-38" points="22.174257 62.7812575 14.4164606 68.2617737 10.9339537 63.3642974 12.564466 62.212661 14.8209838 65.3863671 16.298617 64.3429084 14.2508663 61.4633751 15.7725595 60.3886716 17.8194231 63.2687944 19.3077017 62.2173772 17.0437913 59.0321753 18.6843575 57.8725803"></polygon>
                        <path d="M44.264327,1.72070819 L44.1013941,1.72129771 C32.8528111,1.76374349 22.2941058,6.16985095 14.3698281,14.1284341 C6.44643744,22.0873121 2.10579735,32.6456991 2.14867444,43.8584585 C2.23679426,66.9177164 21.1260747,85.6778655 44.2569344,85.6778655 L44.4207545,85.6775708 C55.6693374,85.635125 66.2280427,81.2287228 74.1523205,73.2701396 C82.0757111,65.3112616 86.4163512,54.7534641 86.3731784,43.5407047 C86.2862414,20.4811521 67.3960738,1.72070819 44.264327,1.72070819 L44.264327,1.72070819 Z M44.2569344,87.111 C20.3371363,87.111 0.802038097,67.7103323 0.711256946,43.864059 C0.667197039,32.2681085 5.15598486,21.3492272 13.349649,13.1191679 C21.544496,4.88881382 32.4636646,0.332082806 44.0957757,0.288163217 L44.264327,0.287868455 C68.1858994,0.287868455 87.7209975,19.6888309 87.8108916,43.5351042 C87.8549515,55.1307599 83.3661637,66.0493465 75.1724995,74.2794058 C66.9776525,82.5097599 56.058484,87.0664909 44.4263728,87.1104105 L44.2569344,87.111 Z" id="Fill-40"></path>
                        <path d="M80.5212539,32.7904274 L79.1506655,34.8469843 L80.0744451,37.1396457 C80.0865689,37.1720696 80.0927787,37.2003668 80.0998756,37.2339697 C80.126489,37.3574751 80.0939615,37.4842229 79.9552763,37.5136991 C79.8884472,37.5281425 79.8165911,37.5187101 79.7518319,37.4974872 L77.3652044,36.8333877 L75.4629401,38.4159667 C75.4079391,38.4628339 75.3511639,38.4999739 75.2843348,38.5141225 C75.1456496,38.5438935 75.0590083,38.44279 75.0323949,38.3189899 C75.0250023,38.2856817 75.0238195,38.2562055 75.0214539,38.2217183 L74.9191403,35.7533785 L72.8172757,34.4402122 C72.7466024,34.3906922 72.667058,34.3228968 72.6487244,34.2374157 C72.6176755,34.094456 72.7536993,34.0057325 72.8687282,33.9609287 L75.1914837,33.0999279 L75.7994513,30.70351 C75.8228119,30.6038804 75.8813613,30.4818488 75.9913632,30.4582678 C76.1010694,30.4346868 76.2048616,30.5222312 76.2675508,30.6032908 L77.8090562,32.5395847 L80.2814379,32.3736335 C80.400311,32.368033 80.5653138,32.3924982 80.5960671,32.5351632 C80.6146964,32.6209391 80.5700451,32.715263 80.5212539,32.7904274" id="Fill-42"></path>
                        <path d="M13.6079761,58.8284945 C13.4627854,58.5387431 13.3226217,58.2472232 13.1868935,57.9530504 L14.0592205,57.555416 C14.1890346,57.8404512 14.3259456,58.1228335 14.4652222,58.4031525 L13.6079761,58.8284945 Z" id="Fill-44"></path>
                        <path d="M11.0155089,43.8383262 L10.057132,43.8383262 L10.0562449,43.7086308 C10.0562449,43.3746651 10.0609762,43.0513108 10.0692559,42.7291356 L11.0276328,42.7541904 C11.0193531,43.0681123 11.0146218,43.3829184 11.0146218,43.6991984 L11.0155089,43.8383262 Z" id="Fill-46"></path>
                        <path d="M77.354973,42.6857171 C77.3446234,42.3694371 77.3316124,42.0546309 77.312983,41.7410038 L78.26929,41.6852937 C78.288215,42.0068794 78.3030003,42.3302337 78.3133499,42.6550618 L77.354973,42.6857171 Z" id="Fill-48"></path>
                        <path d="M73.5168228,28.2160991 C73.3680837,27.9381382 73.2172746,27.6628302 73.0611429,27.3898802 L73.8938455,26.9170814 C74.0541171,27.1974004 74.2102489,27.4809618 74.3628322,27.7662918 L73.5168228,28.2160991 Z" id="Fill-50"></path>
                        <path d="M44.8989967,24.1248568 L43.5284083,26.1814136 L44.4521878,28.4740751 C44.4643117,28.5064989 44.4705215,28.5347961 44.4776184,28.568399 C44.5042317,28.6919045 44.4717043,28.8186523 44.3330191,28.8481285 C44.2661899,28.8625718 44.1943339,28.8531395 44.1295747,28.8319166 L41.7429471,28.167817 L39.8406828,29.750396 C39.7856818,29.7972632 39.7289067,29.8344033 39.6620775,29.8485519 C39.5233923,29.8783229 39.436751,29.7772194 39.4101377,29.6534192 C39.4027451,29.6201111 39.4015622,29.5906348 39.3991966,29.5561476 L39.296883,27.0878078 L37.1950185,25.7746416 C37.1243452,25.7251215 37.0448008,25.6573262 37.0264671,25.5718451 C36.9954182,25.4288853 37.1314421,25.3401619 37.246471,25.295358 L39.5692265,24.4343572 L40.177194,22.0379394 C40.2005547,21.9383097 40.2591041,21.8162781 40.369106,21.7926971 C40.4788122,21.7691161 40.5826043,21.8566605 40.6452936,21.9377202 L42.1867989,23.874014 L44.6591807,23.7080628 C44.7780537,23.7024623 44.9430566,23.7269276 44.9738098,23.8695926 C44.9924391,23.9553684 44.9477878,24.0496924 44.8989967,24.1248568" id="Fill-52"></path>
                        <path d="M34.472678,28.3434069 L33.4368267,29.8976888 L34.134984,31.6303018 C34.1441508,31.6547671 34.1488821,31.6762847 34.1542048,31.7016343 C34.1743126,31.7950739 34.1497692,31.8905769 34.04509,31.9132736 C33.9945246,31.9238851 33.940115,31.9168108 33.8913238,31.9008936 L32.087529,31.3989134 L30.6498158,32.5950589 C30.6084172,32.6304304 30.5652444,32.6584328 30.514679,32.6690443 C30.4099998,32.6914462 30.3446492,32.6153975 30.3242456,32.5216631 C30.3189229,32.4966083 30.3180358,32.4742064 30.3159659,32.4482673 L30.2387871,30.5827164 L28.6502649,29.5902516 C28.5970381,29.5528168 28.5367145,29.5015282 28.5228164,29.4369752 C28.4994558,29.3290922 28.6020651,29.2618864 28.6892978,29.2279887 L30.4448929,28.5774482 L30.9041213,26.7664284 C30.9218635,26.6909693 30.9662192,26.5987086 31.0490163,26.5810229 C31.1321091,26.5630424 31.2104707,26.6290692 31.2577834,26.6906745 L32.4228574,28.1538748 L34.2914115,28.028306 C34.3813055,28.0241793 34.5060926,28.0427493 34.5291575,28.1506324 C34.5433513,28.2154801 34.5096411,28.2865178 34.472678,28.3434069" id="Fill-54"></path>
                        <path d="M52.2341728,58.5571953 L50.8635844,60.6137521 L51.7873639,62.9064136 C51.7994878,62.9388375 51.8056976,62.9671346 51.8127944,63.0007375 C51.8394078,63.124243 51.8068804,63.2509908 51.6681952,63.280467 C51.601366,63.2949104 51.5295099,63.285478 51.4647508,63.2642551 L49.0781232,62.6001555 L47.1758589,64.1827345 C47.1208579,64.2296017 47.0640827,64.2667418 46.9972536,64.2808904 C46.8585684,64.3106614 46.7719271,64.2095579 46.7453138,64.0857577 C46.7379212,64.0524496 46.7367383,64.0229733 46.7343727,63.9884861 L46.6320591,61.5201463 L44.5301945,60.2069801 C44.4595213,60.15746 44.3799769,60.0896647 44.3616432,60.0041836 C44.3305943,59.8612239 44.4666182,59.7725004 44.5816471,59.7276965 L46.9044025,58.8666957 L47.5123701,56.4702779 C47.5357307,56.3706482 47.5942801,56.2486166 47.7042821,56.2250356 C47.8139883,56.2014546 47.9177804,56.2889991 47.9804697,56.3700587 L49.521975,58.3063525 L51.9943567,58.1404013 C52.1132298,58.1348008 52.2782327,58.1592661 52.3089859,58.3019311 C52.3276152,58.3877069 52.2829639,58.4820309 52.2341728,58.5571953" id="Fill-56"></path>
                        <path d="M15.6058415,49.213966 L14.2352531,51.2705228 L15.1590327,53.5631843 C15.1711565,53.5956082 15.1773663,53.6239054 15.1844632,53.6575083 C15.2110766,53.7810137 15.1785491,53.9077615 15.0398639,53.9372377 C14.9730348,53.9516811 14.9011787,53.9422487 14.8364195,53.9210258 L12.449792,53.2569263 L10.5475277,54.8395053 C10.4925267,54.8863725 10.4357515,54.9235125 10.3689224,54.9376611 C10.2302372,54.9674321 10.1435959,54.8663286 10.1169825,54.7425284 C10.1095899,54.7092203 10.1084071,54.6797441 10.1060415,54.6452569 L10.0037279,52.176917 L7.90186331,50.8637508 C7.83119004,50.8142307 7.75164564,50.7464354 7.73331199,50.6609543 C7.70226306,50.5179946 7.83828694,50.4292711 7.95331582,50.3844672 L10.2760713,49.5234665 L10.8840389,47.1270486 C10.9073995,47.027419 10.9659489,46.9053873 11.0759508,46.8818064 C11.185657,46.8582254 11.2894492,46.9457698 11.3521384,47.0268294 L12.8936438,48.9631232 L15.3660255,48.797172 C15.4848986,48.7915716 15.6499014,48.8160368 15.6806547,48.9587018 C15.699284,49.0444777 15.6546327,49.1388016 15.6058415,49.213966" id="Fill-58"></path>
                        <path d="M54.4090762,24.3109107 L53.3732248,25.8651926 L54.0713822,27.5978056 C54.080549,27.6222709 54.0852802,27.6437885 54.0906029,27.6691381 C54.1107108,27.7625777 54.0861674,27.8580807 53.9814881,27.8807774 C53.9309227,27.8913889 53.8765132,27.8843146 53.827722,27.8683974 L52.0239272,27.3664172 L50.586214,28.5625627 C50.5448154,28.5979342 50.5016426,28.6259366 50.4510772,28.6365481 C50.346398,28.65895 50.2810474,28.5829013 50.2606438,28.4891669 C50.2553211,28.4641121 50.254434,28.4417102 50.2523641,28.4157711 L50.1751853,26.5502202 L48.586663,25.5577554 C48.5334363,25.5203206 48.4731126,25.469032 48.4592146,25.404479 C48.4358539,25.296596 48.5384632,25.2293902 48.625696,25.1954925 L50.381291,24.544952 L50.8405195,22.7339322 C50.8582617,22.6584731 50.9026173,22.5662125 50.9854145,22.5485267 C51.0685073,22.5305462 51.1468689,22.596573 51.1941815,22.6581783 L52.3592556,24.1213786 L54.2278096,23.9958098 C54.3177036,23.9916831 54.4424908,24.0102532 54.4655557,24.1181362 C54.4797495,24.1829839 54.4460392,24.2540216 54.4090762,24.3109107" id="Fill-60"></path>
                        <path d="M40.8996878,60.0001454 L39.8638364,61.5544272 L40.5619937,63.2870402 C40.5711606,63.3115055 40.5758918,63.3330231 40.5812145,63.3583727 C40.6013224,63.4518124 40.5767789,63.5473154 40.4720997,63.5700121 C40.4215343,63.5806235 40.3671248,63.5735492 40.3183336,63.557632 L38.5145387,63.0556518 L37.0768255,64.2517973 C37.035427,64.2871688 36.9922542,64.3151713 36.9416888,64.3257827 C36.8370095,64.3481846 36.7716589,64.2721359 36.7512554,64.1784015 C36.7459327,64.1533467 36.7450456,64.1309448 36.7429756,64.1050057 L36.6657969,62.2394549 L35.0772746,61.2469901 C35.0240479,61.2095552 34.9637242,61.1582666 34.9498261,61.0937136 C34.9264655,60.9858306 35.0290748,60.9186248 35.1163075,60.8847271 L36.8719026,60.2341867 L37.331131,58.4231668 C37.3488733,58.3477077 37.3932289,58.2554471 37.476026,58.2377613 C37.5591189,58.2197808 37.6374805,58.2858076 37.6847931,58.3474129 L38.8498672,59.8106132 L40.7184212,59.6850444 C40.8083152,59.6809177 40.9331023,59.6994878 40.9561673,59.8073708 C40.9703611,59.8722185 40.9366508,59.9432562 40.8996878,60.0001454" id="Fill-62"></path>
                        <path d="M60.8360859,55.9676786 L59.8002346,57.5219605 L60.4983919,59.2545735 C60.5075587,59.2790388 60.51229,59.3005564 60.5176127,59.325906 C60.5377205,59.4193456 60.5131771,59.5148486 60.4084979,59.5375453 C60.3579325,59.5481568 60.3035229,59.5410825 60.2547317,59.5251653 L58.4509369,59.0231851 L57.0132237,60.2193306 C56.9718251,60.2547021 56.9286523,60.2827045 56.8780869,60.293316 C56.7734077,60.3157179 56.7080571,60.2396692 56.6876535,60.1459348 C56.6823308,60.12088 56.6814437,60.0984781 56.6793738,60.072539 L56.602195,58.2069881 L55.0136728,57.2145233 C54.960446,57.1770885 54.9001224,57.1257999 54.8862243,57.0612469 C54.8628637,56.9533639 54.965473,56.8861581 55.0527057,56.8522604 L56.8083008,56.2017199 L57.2675292,54.3907001 C57.2852714,54.315241 57.3296271,54.2229803 57.4124242,54.2052946 C57.495517,54.1873141 57.5738786,54.2533409 57.6211913,54.3149462 L58.7862653,55.7781465 L60.6548194,55.6525777 C60.7447134,55.648451 60.8695005,55.667021 60.8925654,55.7749041 C60.9067592,55.8397518 60.873049,55.9107895 60.8360859,55.9676786" id="Fill-64"></path>
                        <path d="M69.3689227,43.6993163 C69.3689227,57.4994996 58.1052588,68.7272919 44.261577,68.7272919 C30.4167123,68.7272919 19.1530484,57.4994996 19.1530484,43.6993163 C19.1530484,29.8991331 30.4167123,18.6713408 44.261577,18.6713408 C58.1052588,18.6713408 69.3689227,29.8991331 69.3689227,43.6993163 L69.3689227,43.6993163 Z M70.8063402,43.6993163 C70.8063402,29.1088753 58.8980415,17.2385011 44.261577,17.2385011 C29.6239297,17.2385011 17.7156309,29.1088753 17.7156309,43.6993163 C17.7156309,58.2897574 29.6239297,70.1601316 44.261577,70.1601316 C58.8980415,70.1601316 70.8063402,58.2897574 70.8063402,43.6993163 L70.8063402,43.6993163 Z M65.2275871,46.0957342 L65.2275871,34.8101684 L63.3244357,35.2131086 L63.3247314,40.633788 C63.3244357,41.8143112 62.6925161,42.5385422 61.7042731,42.7478235 C60.7157344,42.9571048 60.0838148,42.5011074 60.0838148,41.3205842 L60.0838148,35.8999048 L58.1806634,36.3031397 L58.1806634,41.8116583 C58.1806634,44.1370384 59.7481907,45.0328212 61.7042731,44.6183853 C62.2900629,44.4942904 62.8400724,44.26526 63.3244357,43.9454429 L63.3244357,45.9353834 L63.3244357,45.9353834 C63.3244357,47.1265181 62.5493953,48.2569316 61.2539158,48.5310606 L22.7556112,56.602243 C23.1178486,57.1994315 23.5078823,57.7777552 23.9171368,58.341046 L61.7950543,50.3989696 C63.9421615,49.9438565 65.2275871,48.0706418 65.2275871,46.0957342 L65.2275871,46.0957342 Z M33.5009058,45.9763554 C33.5009058,47.7587833 34.5734244,48.3350437 35.8866462,48.056788 L36.9952408,47.8218624 L36.9952408,42.6623424 L35.8866462,42.897268 C34.5734244,43.1755236 33.5009058,44.1936328 33.5009058,45.9763554 L33.5009058,45.9763554 Z M35.8144944,41.0420338 L38.8989836,40.3885457 L38.8989836,49.2888946 L35.8023706,49.9453303 C33.2359549,50.4891668 31.5128873,49.1468191 31.5128873,46.3975708 C31.5128873,43.6483224 33.2359549,41.5885232 35.8144944,41.0420338 L35.8144944,41.0420338 Z M42.4299859,39.6404389 L40.5401412,40.0410209 L40.5401412,48.9413698 L42.4299859,48.5407878 L42.4299859,42.8907832 L46.1212599,47.7587833 L48.0114003,47.3582013 L48.0114003,38.4578524 L46.1212599,38.8584344 L46.1212599,44.508439 L42.4299859,39.6404389 Z M64.5660971,29.0027608 L26.7585572,36.9996631 C24.6114499,37.4544814 23.3260243,39.3279908 23.3260243,41.3028985 L23.3260243,52.5884642 L25.22888,52.1855241 L25.22888,46.7645499 C25.22888,45.5843215 25.8610953,44.8600904 26.8493383,44.6508092 C27.8375814,44.4415279 28.4697967,44.8975252 28.4697967,46.0780484 L28.4697967,51.4987278 L30.3726524,51.095493 L30.3726524,45.5869744 C30.3726524,43.2615943 28.8051251,42.3658115 26.8493383,42.7802474 C26.2632529,42.9043423 25.713539,43.1333726 25.22888,43.4531898 L25.22888,41.4632492 C25.2291757,40.2721146 26.0042161,39.1419958 27.2993999,38.867572 L65.7329454,30.7386162 C65.3692294,30.1420173 64.9768301,29.5654621 64.5660971,29.0027608 L64.5660971,29.0027608 Z M52.6666695,39.3418447 L51.558075,39.5767702 L51.5583707,44.7362902 L52.6669652,44.5013647 C53.980187,44.223109 55.0527057,43.2049999 55.0527057,41.4222773 C55.05241,39.6398494 53.980187,39.063589 52.6666695,39.3418447 L52.6666695,39.3418447 Z M57.0407242,41.0013566 C57.0407242,43.750605 55.3173608,45.8104042 52.739117,46.3565988 L49.6543321,47.0100869 L49.6543321,38.1097381 L52.7512409,37.4535971 C55.3173608,36.9097606 57.0407242,38.2521083 57.0407242,41.0013566 L57.0407242,41.0013566 Z M66.0981399,28.678817 L66.3083855,28.6343079 L66.3086812,28.9800641 C66.2400779,28.8783711 66.1679261,28.7796257 66.0981399,28.678817 L66.0981399,28.678817 Z" id="Fill-66"></path>
                    </g>
                </g>
            </g>
        </g>
    </g>
</svg>