<?xml version="1.0" encoding="UTF-8"?>
<svg width="38px" height="42px" viewBox="0 0 38 42" version="1.1" xmlns="http://www.w3.org/2000/svg" xmlns:xlink="http://www.w3.org/1999/xlink">
    <!-- Generator: sketchtool 49.1 (51147) - http://www.bohemiancoding.com/sketch -->
    <title>7208C62E-4465-43C8-98DF-D5037647EB6C</title>
    <desc>Created with sketchtool.</desc>
    <defs>
        <path d="M9.4724489,14.3215355 C9.43682528,14.3536995 9.41978789,14.4023378 9.42753215,14.4501915 L9.95414232,17.5145065 C9.99823301,17.769099 9.80416168,18 9.55144043,18 L7.2513931,18 C6.99877511,18 6.80537495,17.7698312 6.84791679,17.5145065 L7.37530138,14.4501915 C7.38304564,14.4023378 7.36600825,14.3536995 7.33038463,14.3215355 C6.98421589,14.0180432 6.76505313,13.5694207 6.76505313,13.0690219 C6.76505313,12.1537335 7.4976608,11.4117647 8.40141677,11.4117647 C9.30517273,11.4117647 10.0377804,12.1537335 10.0377804,13.0690219 C10.0377804,13.5694207 9.81861764,14.0180432 9.4724489,14.3215355 Z M8.23376623,2.94117647 C6.17138701,2.94117647 4.49350649,4.56418523 4.49350649,6.55909932 L4.49350649,8.11764706 L11.974026,8.11764706 L11.974026,6.55909932 C11.974026,4.56418523 10.2961455,2.94117647 8.23376623,2.94117647 Z M16.1818182,9.5562537 C16.1818182,8.810578 15.5722331,8.20587333 14.8204619,8.20587333 L14.2842387,8.20587333 L14.2842387,6.58995917 C14.2842387,3.28074187 11.5698455,0.588235294 8.23376623,0.588235294 C4.89768695,0.588235294 2.18329373,3.28074187 2.18329373,6.58995917 L2.18329373,8.20587333 L1.6470706,8.20587333 C0.895299391,8.20587333 0.285714286,8.810578 0.285714286,9.5562537 L0.285714286,19.9437373 C0.285714286,20.689413 0.895299391,21.2941176 1.6470706,21.2941176 L14.8204619,21.2941176 C15.5722331,21.2941176 16.1818182,20.689413 16.1818182,19.9437373 L16.1818182,9.5562537 Z" id="path-1"></path>
    </defs>
    <g id="V1-Final" stroke="none" stroke-width="1" fill="none" fill-rule="evenodd">
        <g id="V1_Home" transform="translate(-366.000000, -1659.000000)">
            <g id="Vetted/Background" transform="translate(0.000000, 1601.000000)">
                <g id="vetted_icon" transform="translate(366.000000, 58.000000)">
                    <path d="M31.2865468,2.226952 C31.6803775,5.38612984 33.8390564,8.12011151 37,9.45382528 C36.8098877,23.9443569 33.2317429,34.7286122 19,41 C4.76473553,34.7270531 1.19005893,23.9390949 1,9.45382528 C4.1609436,8.12011151 6.31962247,5.38612984 6.71345317,2.226952 C13.9876626,0.592088059 24.0028398,0.589944295 31.2865468,2.226952 Z" id="Path" stroke="#234B84" stroke-width="2" fill="#234B84"></path>
                    <g id="secure_icon" transform="translate(11.000000, 7.000000)">
                        <mask id="mask-2" fill="white">
                            <use xlink:href="#path-1"></use>
                        </mask>
                        <use id="Mask" fill="#FFB600" xlink:href="#path-1"></use>
                    </g>
                </g>
            </g>
        </g>
    </g>
</svg>